<?xml version="1.0" standalone="no"?><!-- Generator: Gravit.io --><svg xmlns="http://www.w3.org/2000/svg" xmlns:xlink="http://www.w3.org/1999/xlink" style="isolation:isolate" viewBox="0 0 512 512" width="512" height="512"><defs><clipPath id="_clipPath_6jLphIihEtDD98EvMzcpB4danC3nfWFD"><rect width="512" height="512"/></clipPath></defs><g clip-path="url(#_clipPath_6jLphIihEtDD98EvMzcpB4danC3nfWFD)"><rect width="512" height="512" style="fill:rgb(0,0,0)" fill-opacity="0"/><clipPath id="_clipPath_8M8pTO6Ie5TjM90bD63NDersmD3Mrlq0"><rect x="120.332" y="324.817" width="272.909" height="136.848" transform="matrix(1,0,0,1,0,0)" fill="rgb(255,255,255)"/></clipPath><g clip-path="url(#_clipPath_8M8pTO6Ie5TjM90bD63NDersmD3Mrlq0)"><g><path d=" M 454.55 249.492 L 255.547 448.495 L 59.023 251.97 L 60.143 250.85" fill="none" vector-effect="non-scaling-stroke" stroke-width="15" stroke="rgb(41,128,184)" stroke-linejoin="miter" stroke-linecap="square" stroke-miterlimit="3"/><path d=" M 141.225 274.062 L 257.102 389.938 L 372.348 274.692 L 372.071 274.415" fill="none" vector-effect="non-scaling-stroke" stroke-width="7" stroke="rgb(71,86,103)" stroke-linejoin="miter" stroke-linecap="square" stroke-miterlimit="3"/></g></g><clipPath id="_clipPath_1hLB7Ja3vmLGlT4gRiOyItrmR4izxVtn"><rect x="120.331" y="40.965" width="272.91" height="136.85" transform="matrix(1,0,0,1,0,0)" fill="rgb(255,255,255)"/></clipPath><g clip-path="url(#_clipPath_1hLB7Ja3vmLGlT4gRiOyItrmR4izxVtn)"><g><path d=" M 58.938 250.881 L 256.538 53.281 L 453.062 249.806 L 452.59 250.278" fill="none" vector-effect="non-scaling-stroke" stroke-width="15" stroke="rgb(245,157,32)" stroke-linejoin="miter" stroke-linecap="square" stroke-miterlimit="3"/><path d=" M 140.438 225.938 L 256.315 110.062 L 371.562 225.308 L 371.284 225.585" fill="none" vector-effect="non-scaling-stroke" stroke-width="7" stroke="rgb(71,86,103)" stroke-linejoin="miter" stroke-linecap="square" stroke-miterlimit="3"/></g></g><path d=" M 106.928 283.72 L 85.676 223.576 L 93.572 223.576 L 108.44 267.172 L 110.456 273.136 L 110.792 273.136 L 112.892 267.172 L 128.432 223.576 L 136.328 223.576 L 114.32 283.72 L 106.928 283.72 L 106.928 283.72 Z  M 161.78 285.064 L 161.78 285.064 Q 155.648 285.064 150.776 282.124 L 150.776 282.124 L 150.776 282.124 Q 145.904 279.184 143.174 274.018 L 143.174 274.018 L 143.174 274.018 Q 140.444 268.852 140.444 262.384 L 140.444 262.384 L 140.444 262.384 Q 140.444 256.168 143.006 250.96 L 143.006 250.96 L 143.006 250.96 Q 145.568 245.752 150.272 242.644 L 150.272 242.644 L 150.272 242.644 Q 154.976 239.536 161.192 239.536 L 161.192 239.536 L 161.192 239.536 Q 167.492 239.536 172.112 242.35 L 172.112 242.35 L 172.112 242.35 Q 176.732 245.164 179.21 250.12 L 179.21 250.12 L 179.21 250.12 Q 181.688 255.076 181.688 261.46 L 181.688 261.46 L 181.688 261.46 Q 181.688 262.72 181.436 263.644 L 181.436 263.644 L 147.584 263.644 L 147.584 263.644 Q 147.836 268.516 149.936 271.876 L 149.936 271.876 L 149.936 271.876 Q 152.036 275.236 155.27 276.916 L 155.27 276.916 L 155.27 276.916 Q 158.504 278.596 162.032 278.596 L 162.032 278.596 L 162.032 278.596 Q 170.264 278.596 174.716 270.868 L 174.716 270.868 L 180.764 273.808 L 180.764 273.808 Q 177.992 279.016 173.246 282.04 L 173.246 282.04 L 173.246 282.04 Q 168.5 285.064 161.78 285.064 L 161.78 285.064 L 161.78 285.064 Z  M 148.004 257.764 L 174.128 257.764 L 174.128 257.764 Q 173.96 255.076 172.616 252.388 L 172.616 252.388 L 172.616 252.388 Q 171.272 249.7 168.374 247.852 L 168.374 247.852 L 168.374 247.852 Q 165.476 246.004 161.108 246.004 L 161.108 246.004 L 161.108 246.004 Q 156.068 246.004 152.582 249.238 L 152.582 249.238 L 152.582 249.238 Q 149.096 252.472 148.004 257.764 L 148.004 257.764 L 148.004 257.764 Z  M 190.004 283.72 L 190.004 240.88 L 196.808 240.88 L 196.808 247.18 L 197.144 247.18 L 197.144 247.18 Q 198.908 243.988 202.772 241.762 L 202.772 241.762 L 202.772 241.762 Q 206.636 239.536 211.004 239.536 L 211.004 239.536 L 211.004 239.536 Q 218.732 239.536 222.806 244.03 L 222.806 244.03 L 222.806 244.03 Q 226.88 248.524 226.88 256.252 L 226.88 256.252 L 226.88 283.72 L 219.74 283.72 L 219.74 257.344 L 219.74 257.344 Q 219.74 251.38 216.884 248.692 L 216.884 248.692 L 216.884 248.692 Q 214.028 246.004 209.072 246.004 L 209.072 246.004 L 209.072 246.004 Q 205.628 246.004 202.898 247.936 L 202.898 247.936 L 202.898 247.936 Q 200.168 249.868 198.656 253.018 L 198.656 253.018 L 198.656 253.018 Q 197.144 256.168 197.144 259.612 L 197.144 259.612 L 197.144 283.72 L 190.004 283.72 L 190.004 283.72 Z  M 238.556 283.72 L 238.556 223.576 L 260.144 223.576 L 260.144 223.576 Q 264.68 223.576 268.67 225.676 L 268.67 225.676 L 268.67 225.676 Q 272.66 227.776 275.012 231.472 L 275.012 231.472 L 275.012 231.472 Q 277.364 235.168 277.364 239.788 L 277.364 239.788 L 277.364 239.788 Q 277.364 244.156 275.138 247.432 L 275.138 247.432 L 275.138 247.432 Q 272.912 250.708 269.132 252.472 L 269.132 252.472 L 269.132 252.808 L 269.132 252.808 Q 273.668 254.32 276.524 258.016 L 276.524 258.016 L 276.524 258.016 Q 279.38 261.712 279.38 266.668 L 279.38 266.668 L 279.38 266.668 Q 279.38 271.54 276.902 275.446 L 276.902 275.446 L 276.902 275.446 Q 274.424 279.352 270.266 281.536 L 270.266 281.536 L 270.266 281.536 Q 266.108 283.72 261.32 283.72 L 261.32 283.72 L 238.556 283.72 L 238.556 283.72 Z  M 245.612 249.616 L 260.144 249.616 L 260.144 249.616 Q 263.168 249.616 265.478 248.188 L 265.478 248.188 L 265.478 248.188 Q 267.788 246.76 269.048 244.534 L 269.048 244.534 L 269.048 244.534 Q 270.308 242.308 270.308 239.956 L 270.308 239.956 L 270.308 239.956 Q 270.308 237.688 269.09 235.462 L 269.09 235.462 L 269.09 235.462 Q 267.872 233.236 265.646 231.808 L 265.646 231.808 L 265.646 231.808 Q 263.42 230.38 260.48 230.38 L 260.48 230.38 L 245.612 230.38 L 245.612 249.616 L 245.612 249.616 Z  M 245.612 276.916 L 261.74 276.916 L 261.74 276.916 Q 264.764 276.916 267.158 275.404 L 267.158 275.404 L 267.158 275.404 Q 269.552 273.892 270.854 271.498 L 270.854 271.498 L 270.854 271.498 Q 272.156 269.104 272.156 266.584 L 272.156 266.584 L 272.156 266.584 Q 272.156 264.064 270.812 261.67 L 270.812 261.67 L 270.812 261.67 Q 269.468 259.276 267.032 257.806 L 267.032 257.806 L 267.032 257.806 Q 264.596 256.336 261.404 256.336 L 261.404 256.336 L 245.612 256.336 L 245.612 276.916 L 245.612 276.916 Z  M 288.032 283.72 L 288.032 240.88 L 294.836 240.88 L 294.836 247.768 L 295.172 247.768 L 295.172 247.768 Q 296.432 244.24 300.044 241.93 L 300.044 241.93 L 300.044 241.93 Q 303.656 239.62 307.604 239.62 L 307.604 239.62 L 307.604 239.62 Q 310.544 239.62 312.644 240.46 L 312.644 240.46 L 312.644 248.188 L 312.644 248.188 Q 309.956 246.844 306.596 246.844 L 306.596 246.844 L 306.596 246.844 Q 303.488 246.844 300.884 248.608 L 300.884 248.608 L 300.884 248.608 Q 298.28 250.372 296.726 253.354 L 296.726 253.354 L 296.726 253.354 Q 295.172 256.336 295.172 259.78 L 295.172 259.78 L 295.172 283.72 L 288.032 283.72 L 288.032 283.72 Z  M 333.224 285.064 L 333.224 285.064 Q 328.52 285.064 324.824 283.216 L 324.824 283.216 L 324.824 283.216 Q 321.128 281.368 319.112 278.134 L 319.112 278.134 L 319.112 278.134 Q 317.096 274.9 317.096 270.784 L 317.096 270.784 L 317.096 270.784 Q 317.096 263.98 322.22 260.158 L 322.22 260.158 L 322.22 260.158 Q 327.344 256.336 335.156 256.336 L 335.156 256.336 L 335.156 256.336 Q 339.02 256.336 342.338 257.176 L 342.338 257.176 L 342.338 257.176 Q 345.656 258.016 347.42 259.108 L 347.42 259.108 L 347.42 256.504 L 347.42 256.504 Q 347.42 251.716 344.06 248.818 L 344.06 248.818 L 344.06 248.818 Q 340.7 245.92 335.576 245.92 L 335.576 245.92 L 335.576 245.92 Q 331.964 245.92 328.94 247.474 L 328.94 247.474 L 328.94 247.474 Q 325.916 249.028 324.152 251.8 L 324.152 251.8 L 318.776 247.768 L 318.776 247.768 Q 321.296 243.904 325.706 241.72 L 325.706 241.72 L 325.706 241.72 Q 330.116 239.536 335.492 239.536 L 335.492 239.536 L 335.492 239.536 Q 344.228 239.536 349.226 244.114 L 349.226 244.114 L 349.226 244.114 Q 354.224 248.692 354.224 256.588 L 354.224 256.588 L 354.224 283.72 L 347.42 283.72 L 347.42 277.588 L 347.084 277.588 L 347.084 277.588 Q 345.236 280.696 341.54 282.88 L 341.54 282.88 L 341.54 282.88 Q 337.844 285.064 333.224 285.064 L 333.224 285.064 L 333.224 285.064 Z  M 333.896 278.764 L 333.896 278.764 Q 337.508 278.764 340.616 276.916 L 340.616 276.916 L 340.616 276.916 Q 343.724 275.068 345.572 271.96 L 345.572 271.96 L 345.572 271.96 Q 347.42 268.852 347.42 265.156 L 347.42 265.156 L 347.42 265.156 Q 345.404 263.812 342.464 262.972 L 342.464 262.972 L 342.464 262.972 Q 339.524 262.132 336.248 262.132 L 336.248 262.132 L 336.248 262.132 Q 330.368 262.132 327.386 264.568 L 327.386 264.568 L 327.386 264.568 Q 324.404 267.004 324.404 270.868 L 324.404 270.868 L 324.404 270.868 Q 324.404 274.396 327.092 276.58 L 327.092 276.58 L 327.092 276.58 Q 329.78 278.764 333.896 278.764 L 333.896 278.764 L 333.896 278.764 Z  M 368.336 232.984 L 368.336 232.984 Q 366.236 232.984 364.724 231.472 L 364.724 231.472 L 364.724 231.472 Q 363.212 229.96 363.212 227.86 L 363.212 227.86 L 363.212 227.86 Q 363.212 225.76 364.724 224.29 L 364.724 224.29 L 364.724 224.29 Q 366.236 222.82 368.336 222.82 L 368.336 222.82 L 368.336 222.82 Q 370.436 222.82 371.948 224.29 L 371.948 224.29 L 371.948 224.29 Q 373.46 225.76 373.46 227.86 L 373.46 227.86 L 373.46 227.86 Q 373.46 229.96 371.99 231.472 L 371.99 231.472 L 371.99 231.472 Q 370.52 232.984 368.336 232.984 L 368.336 232.984 L 368.336 232.984 Z  M 364.808 283.72 L 364.808 240.88 L 371.864 240.88 L 371.864 283.72 L 364.808 283.72 L 364.808 283.72 Z  M 383.12 283.72 L 383.12 240.88 L 389.924 240.88 L 389.924 247.18 L 390.26 247.18 L 390.26 247.18 Q 392.024 243.988 395.888 241.762 L 395.888 241.762 L 395.888 241.762 Q 399.752 239.536 404.12 239.536 L 404.12 239.536 L 404.12 239.536 Q 411.848 239.536 415.922 244.03 L 415.922 244.03 L 415.922 244.03 Q 419.996 248.524 419.996 256.252 L 419.996 256.252 L 419.996 283.72 L 412.856 283.72 L 412.856 257.344 L 412.856 257.344 Q 412.856 251.38 410 248.692 L 410 248.692 L 410 248.692 Q 407.144 246.004 402.188 246.004 L 402.188 246.004 L 402.188 246.004 Q 398.744 246.004 396.014 247.936 L 396.014 247.936 L 396.014 247.936 Q 393.284 249.868 391.772 253.018 L 391.772 253.018 L 391.772 253.018 Q 390.26 256.168 390.26 259.612 L 390.26 259.612 L 390.26 283.72 L 383.12 283.72 L 383.12 283.72 Z " fill-rule="evenodd" fill="rgb(71,86,103)"/></g></svg>